# xmcd CD database file
#
# Track frame offsets:
#	150
#	15835
#	31552
#	44572
#	58450
#	68967
#	82102
#	94112
#	105380
#	117167
#	129737
#	142202
#	152302
#	164910
#	183312
#	195530
#
# Disc length: 2806 seconds
#
# Revision: 1
# Processed by: cddbd v1.5.2PL0 Copyright (c) Steve Scherf et al.
# Submitted via: CDex 1.70beta2
#
DISCID=db0af410
DTITLE=Anton Karasu - 第三の男
DYEAR=1900
DGENRE=Instrumental
TTITLE0=第三の男
TTITLE1=魅惑のワルツ
TTITLE2=死ぬ程愛して
TTITLE3=黒いオルフェ
TTITLE4=禁じられた遊び
TTITLE5=白い恋人たち
TTITLE6=菩提樹
TTITLE7=夜霧のしのび逢い
TTITLE8=旅情
TTITLE9=マルセリーノの恋
TTITLE10=鉄道員
TTITLE11=エーデルワイス
TTITLE12=日曜はダメよ
TTITLE13=ララのテーマ
TTITLE14=太陽がいっぱい
TTITLE15=美しき青きドナウ
EXTD=
EXTT0=
EXTT1=
EXTT2=
EXTT3=
EXTT4=
EXTT5=
EXTT6=
EXTT7=
EXTT8=
EXTT9=
EXTT10=
EXTT11=
EXTT12=
EXTT13=
EXTT14=
EXTT15=
PLAYORDER=
